<?xml version="1.0" standalone="no"?>
<!DOCTYPE svg PUBLIC "-//W3C//DTD SVG 20010904//EN"
 "http://www.w3.org/TR/2001/REC-SVG-20010904/DTD/svg10.dtd">
<svg version="1.0" xmlns="http://www.w3.org/2000/svg"
 width="323.000000pt" height="327.000000pt" viewBox="0 0 323.000000 327.000000"
 preserveAspectRatio="xMidYMid meet">

<g transform="translate(0.000000,327.000000) scale(0.100000,-0.100000)"
fill="#000000" stroke="none">
<path d="M1603 2060 c42 -7 137 -53 137 -65 0 -3 -47 -5 -104 -5 l-104 0 -10
29 c-9 27 -8 30 11 34 20 4 20 4 2 6 -11 0 -71 -17 -133 -38 -96 -34 -113 -37
-121 -24 -5 10 -15 13 -30 8 -17 -5 -20 -10 -11 -20 9 -11 4 -20 -19 -41 -58
-51 -28 -104 59 -104 43 1 46 3 65 43 18 37 24 42 58 45 45 4 64 -9 75 -52 l8
-31 70 3 c38 1 111 5 162 8 85 6 92 8 92 28 1 43 52 81 95 70 15 -4 34 -22 47
-46 22 -39 23 -40 68 -33 41 6 70 25 70 47 0 5 -27 22 -60 37 -44 21 -83 31
-143 36 -60 4 -104 15 -164 41 -54 23 -96 34 -125 33 l-43 -1 48 -8z m-99 -42
c3 -13 6 -26 6 -30 0 -5 -30 -8 -66 -8 -77 0 -82 15 -13 42 58 22 66 22 73 -4z"/>
<path d="M417 1652 c-15 -16 -17 -50 -17 -275 0 -219 2 -258 16 -271 14 -14
138 -16 1219 -16 1081 0 1205 2 1219 16 24 23 24 525 0 548 -14 14 -138 16
-1218 16 -1153 0 -1204 -1 -1219 -18z m2428 -272 l0 -265 -1210 0 -1210 0 -3
255 c-1 140 0 260 3 267 3 11 243 13 1212 11 l1208 -3 0 -265z"/>
<path d="M606 1562 c-7 -11 -96 -338 -96 -352 0 -6 9 -10 19 -10 14 0 21 9 26
33 14 68 13 67 65 67 l48 0 12 -50 c9 -38 16 -50 31 -50 10 0 19 6 18 13 0 6
-21 88 -47 181 -43 155 -60 193 -76 168z m16 -220 c-19 -2 -36 -2 -38 0 -4 5
25 119 34 133 4 6 14 -21 23 -60 l16 -70 -35 -3z"/>
<path d="M768 1564 c-5 -4 -8 -88 -8 -186 l0 -178 60 0 c74 0 105 14 125 57
19 39 13 80 -16 117 -20 25 -20 27 -3 55 15 25 16 36 6 68 -6 21 -21 44 -33
51 -25 16 -121 28 -131 16z m124 -69 c8 -19 8 -31 0 -50 -10 -21 -19 -25 -52
-25 l-40 0 0 50 0 50 40 0 c33 0 42 -4 52 -25z m8 -141 c19 -22 16 -70 -5 -94
-12 -13 -31 -20 -57 -20 l-38 0 0 65 0 65 44 0 c27 0 48 -6 56 -16z"/>
<path d="M1045 1560 c-45 -18 -50 -36 -50 -181 0 -130 1 -140 23 -161 31 -32
97 -31 123 1 23 28 27 111 5 111 -8 0 -16 -15 -19 -36 -8 -45 -23 -64 -53 -64
-36 0 -44 29 -44 152 0 130 8 152 55 146 26 -3 31 -8 39 -45 13 -56 36 -57 36
-3 0 68 -54 105 -115 80z"/>
<path d="M1350 1552 c-41 -20 -58 -64 -44 -114 9 -31 19 -40 106 -93 39 -24
49 -66 22 -96 -34 -37 -84 -13 -84 42 0 24 -4 29 -25 29 -29 0 -33 -22 -11
-74 25 -61 115 -71 156 -19 24 31 26 90 4 121 -9 13 -40 37 -70 53 -62 35 -76
65 -50 104 32 49 96 18 96 -47 0 -22 5 -28 21 -28 20 0 21 4 16 47 -4 35 -12
53 -32 70 -31 28 -58 29 -105 5z"/>
<path d="M1537 1563 c-4 -3 -7 -87 -7 -185 l0 -178 95 0 c88 0 95 1 95 20 0
18 -7 20 -75 20 l-76 0 3 63 3 62 68 3 c59 3 67 5 67 22 0 18 -7 20 -70 20
l-70 0 0 55 0 55 70 0 c68 0 70 1 70 25 0 25 -1 25 -83 25 -46 0 -87 -3 -90
-7z"/>
<path d="M1830 1528 c-34 -129 -81 -305 -85 -315 -3 -8 5 -13 20 -13 14 0 25
6 25 13 0 6 5 29 11 50 10 36 11 37 59 37 33 0 50 -4 50 -12 0 -7 5 -30 11
-50 7 -28 15 -38 30 -38 15 0 18 5 14 23 -61 241 -93 342 -107 345 -12 2 -20
-9 -28 -40z m49 -116 c15 -73 15 -72 -25 -72 -25 0 -35 4 -31 13 2 6 10 38 17
70 8 32 17 54 21 50 4 -4 12 -32 18 -61z"/>
<path d="M1957 1563 c-4 -3 -7 -15 -7 -25 0 -14 8 -18 40 -18 l40 0 0 -160 c0
-153 1 -160 20 -160 19 0 20 7 20 160 l0 160 35 0 c31 0 35 3 35 25 0 25 -1
25 -88 25 -49 0 -92 -3 -95 -7z"/>
<path d="M2177 1563 c-4 -3 -7 -15 -7 -25 0 -14 8 -18 35 -18 l35 0 0 -160 0
-160 25 0 25 0 0 160 0 160 35 0 c31 0 35 3 35 25 0 25 -1 25 -88 25 -49 0
-92 -3 -95 -7z"/>
<path d="M2400 1385 l0 -185 75 0 c68 0 75 2 75 20 0 18 -7 20 -55 20 l-55 0
0 165 c0 158 -1 165 -20 165 -19 0 -20 -7 -20 -185z"/>
<path d="M2590 1385 l0 -185 90 0 c83 0 90 1 90 20 0 18 -7 20 -70 20 l-70 0
0 65 0 65 65 0 c59 0 65 2 65 21 0 19 -5 21 -62 17 l-63 -3 -3 58 -3 57 71 0
c68 0 71 1 68 23 -3 21 -8 22 -90 25 l-88 3 0 -186z"/>
</g>
</svg>